<?xml version="1.0" standalone="no"?>
<!DOCTYPE svg PUBLIC "-//W3C//DTD SVG 20010904//EN"
 "http://www.w3.org/TR/2001/REC-SVG-20010904/DTD/svg10.dtd">
<svg version="1.0" xmlns="http://www.w3.org/2000/svg"
 width="590.000000pt" height="475.000000pt" viewBox="0 0 590.000000 475.000000"
 preserveAspectRatio="xMidYMid meet">

<g transform="translate(0.000000,475.000000) scale(0.100000,-0.100000)"
fill="#000000" stroke="none">
<path d="M3532 4715 c-21 -24 -22 -35 -22 -200 0 -110 4 -175 10 -175 6 0 10
-24 10 -54 0 -30 4 -66 10 -80 6 -17 6 -26 0 -26 -6 0 -10 -20 -10 -45 0 -25
-4 -45 -10 -45 -6 0 -10 -45 -10 -115 0 -70 4 -115 10 -115 15 0 13 -147 -2
-153 -10 -4 -10 -6 0 -6 6 -1 12 -10 12 -20 0 -11 -6 -22 -12 -24 -10 -4 -10
-6 0 -6 15 -1 17 -101 2 -101 -6 0 -10 -37 -10 -90 0 -53 -4 -90 -10 -90 -5 0
-10 -13 -10 -29 0 -30 -29 -91 -42 -91 -5 0 -8 -9 -8 -20 0 -11 -4 -20 -10
-20 -5 0 -10 -5 -10 -11 0 -14 -25 -39 -39 -39 -6 0 -11 -5 -11 -10 0 -14
-136 -150 -150 -150 -5 0 -10 -4 -10 -10 0 -5 -25 -10 -55 -10 -30 0 -55 -4
-55 -10 0 -5 -21 -10 -46 -10 -46 0 -146 -28 -152 -42 -2 -5 -15 -8 -28 -8
-13 0 -24 -4 -24 -10 0 -5 -9 -10 -20 -10 -11 0 -20 -3 -20 -8 0 -4 -16 -16
-35 -26 -19 -11 -35 -23 -35 -28 0 -4 -9 -8 -20 -8 -11 0 -20 -4 -20 -10 0 -5
-5 -10 -11 -10 -14 0 -39 -25 -39 -39 0 -6 -5 -11 -10 -11 -11 0 -170 -155
-170 -165 0 -4 -6 -13 -12 -20 -30 -33 -38 -45 -38 -55 0 -5 -4 -10 -10 -10
-5 0 -10 -9 -10 -20 0 -11 -4 -20 -8 -20 -5 0 -17 -16 -28 -35 -10 -19 -22
-35 -26 -35 -5 0 -8 -9 -8 -20 0 -11 -4 -20 -10 -20 -5 0 -10 -9 -10 -19 0
-11 -3 -21 -7 -23 -10 -4 -63 -110 -63 -126 0 -6 -4 -12 -10 -12 -5 0 -10 -11
-10 -25 0 -14 -4 -25 -10 -25 -5 0 -10 -8 -10 -17 0 -10 -7 -27 -15 -37 -8
-11 -15 -28 -15 -38 0 -10 -4 -18 -10 -18 -5 0 -10 -11 -10 -25 0 -14 -4 -25
-10 -25 -5 0 -10 -11 -10 -25 0 -14 -3 -25 -8 -25 -8 0 -30 -59 -39 -103 -3
-15 -9 -27 -14 -27 -5 0 -9 -11 -9 -25 0 -14 -4 -25 -10 -25 -5 0 -10 -13 -10
-30 0 -16 -4 -30 -10 -30 -5 0 -10 -10 -10 -22 -1 -13 -7 -34 -15 -48 -8 -14
-14 -35 -15 -47 0 -13 -4 -23 -10 -23 -5 0 -10 -16 -10 -35 0 -19 -4 -35 -10
-35 -5 0 -10 -18 -10 -40 0 -22 -4 -40 -10 -40 -5 0 -10 -8 -10 -19 0 -10 -7
-35 -15 -54 -11 -27 -15 -75 -15 -177 0 -87 -4 -140 -10 -140 -6 0 -10 -52
-10 -135 0 -83 -4 -135 -10 -135 -5 0 -10 -14 -10 -30 0 -76 -106 -200 -170
-200 -11 0 -20 -4 -20 -10 0 -6 -37 -10 -90 -10 -53 0 -90 -4 -90 -10 0 -5
-13 -10 -30 -10 -16 0 -30 5 -30 10 0 6 -72 10 -195 10 -123 0 -195 -4 -195
-10 0 -6 -29 -10 -67 -10 -38 -1 -86 -7 -108 -15 -22 -8 -52 -15 -67 -15 -16
0 -28 -4 -28 -10 0 -5 -16 -10 -35 -10 -19 0 -35 -4 -35 -10 0 -5 -13 -10 -30
-10 -16 0 -30 -4 -30 -10 0 -5 -9 -10 -21 -10 -11 0 -27 -7 -35 -15 -9 -8 -24
-15 -34 -15 -10 0 -22 -5 -25 -10 -3 -6 -15 -10 -26 -10 -10 0 -19 -4 -19 -10
0 -5 -11 -10 -25 -10 -14 0 -25 -4 -25 -8 0 -10 -71 -42 -93 -42 -10 0 -17 -4
-17 -10 0 -5 -16 -10 -35 -10 -19 0 -35 -4 -35 -10 0 -5 -12 -10 -27 -10 -45
0 -152 -40 -180 -67 -17 -16 -16 -61 1 -79 8 -8 24 -14 35 -14 12 0 21 -4 21
-10 0 -13 247 -13 255 0 3 6 28 10 56 10 27 0 49 5 49 10 0 6 14 10 30 10 17
0 30 4 30 9 0 5 16 12 35 15 19 4 35 11 35 16 0 6 11 10 25 10 14 0 25 5 25
10 0 6 11 10 25 10 14 0 25 5 25 10 0 6 6 10 14 10 7 0 39 11 70 25 31 14 68
25 81 25 14 0 25 5 25 10 0 6 90 10 250 10 138 0 250 -4 250 -9 0 -4 55 -12
123 -16 113 -8 193 -8 550 -3 95 1 143 -2 170 -13 20 -7 37 -17 37 -21 0 -5
11 -8 25 -8 14 0 25 -4 25 -9 0 -16 78 -22 355 -30 294 -9 665 -3 665 11 0 4
11 8 24 8 25 0 36 16 36 52 0 22 -11 22 158 -2 67 -10 88 -10 110 0 15 8 52
14 83 14 46 1 60 6 82 28 22 22 27 36 27 78 0 27 -4 50 -10 50 -5 0 -10 7 -10
15 0 8 -7 15 -15 15 -8 0 -15 5 -15 10 0 6 -9 10 -20 10 -11 0 -20 5 -20 10 0
6 -6 10 -14 10 -8 0 -29 8 -48 17 -62 31 -68 33 -93 33 -14 0 -25 5 -25 10 0
6 -10 10 -22 10 -24 0 -63 20 -40 20 6 0 12 7 12 15 0 8 5 15 11 15 12 0 99
89 99 102 0 4 7 8 15 8 8 0 15 7 15 15 0 8 5 15 10 15 6 0 10 7 10 15 0 8 5
15 10 15 6 0 10 5 10 11 0 6 6 17 13 24 31 36 37 46 37 65 0 11 5 20 10 20 6
0 10 8 10 18 0 10 4 22 9 27 15 17 41 130 41 178 0 26 5 47 10 47 6 0 10 30
10 70 0 40 4 70 10 70 6 0 10 -20 10 -45 0 -25 5 -45 10 -45 6 0 10 -15 10
-32 1 -18 7 -44 15 -58 8 -14 14 -35 15 -47 0 -13 5 -23 10 -23 6 0 10 -16 10
-35 0 -19 5 -35 10 -35 6 0 10 -16 10 -35 0 -19 5 -35 10 -35 6 0 10 -8 10
-18 0 -10 7 -27 15 -38 8 -10 15 -27 15 -36 0 -10 5 -18 10 -18 6 0 10 -13 10
-30 0 -16 5 -30 10 -30 6 0 10 -11 10 -24 0 -13 3 -26 8 -28 10 -4 42 -75 42
-93 0 -8 5 -15 10 -15 6 0 10 -11 10 -25 0 -14 5 -25 10 -25 6 0 10 -9 10 -21
0 -11 7 -27 15 -35 8 -9 15 -24 15 -35 0 -10 5 -19 10 -19 6 0 10 -11 10 -25
0 -14 5 -25 10 -25 6 0 10 -11 10 -25 0 -14 5 -25 10 -25 6 0 10 -9 10 -20 0
-11 4 -20 8 -20 5 0 17 -19 27 -42 34 -79 59 -90 202 -96 117 -5 197 11 231
44 20 20 18 130 -3 150 -8 9 -15 20 -15 25 0 5 -9 9 -20 9 -11 0 -20 5 -20 10
0 6 -20 10 -45 10 -38 0 -50 6 -81 35 -19 19 -40 35 -45 35 -5 0 -9 11 -9 25
0 14 -4 25 -10 25 -5 0 -10 11 -10 25 0 14 -7 42 -15 62 -8 19 -15 46 -15 59
0 12 -4 26 -10 29 -5 3 -10 26 -10 51 0 24 -4 44 -10 44 -6 0 -10 85 -10 235
0 150 4 235 10 235 6 0 10 26 10 59 0 33 4 62 9 65 4 3 11 35 15 71 4 36 11
77 16 90 5 14 11 97 12 185 1 88 6 160 10 160 5 0 8 16 8 35 0 19 5 35 10 35
6 0 10 11 10 25 0 14 5 25 10 25 6 0 10 10 10 23 1 12 7 33 15 47 8 14 14 40
15 58 0 17 5 32 10 32 6 0 10 20 10 45 0 25 4 45 9 45 5 0 11 21 14 48 11 94
31 167 51 184 12 10 26 22 33 28 7 5 15 10 18 10 3 0 16 10 29 23 13 12 36 31
50 41 40 29 66 53 66 60 0 11 48 56 60 56 5 0 10 4 10 10 0 10 27 45 68 86 12
13 22 26 22 29 0 3 10 17 23 30 56 62 67 75 67 80 0 3 11 17 25 31 14 14 25
29 25 33 0 4 14 22 30 39 17 18 30 34 30 37 0 7 14 25 48 60 12 13 22 27 22
30 0 7 14 24 48 60 12 13 22 27 22 30 0 10 119 125 130 125 5 0 10 5 10 10 0
6 7 10 15 10 9 0 51 36 94 80 74 74 82 80 120 80 23 0 41 5 41 10 0 6 7 10 15
10 9 0 28 11 43 25 15 14 31 25 35 25 20 0 37 32 37 69 0 23 5 41 10 41 6 0
10 21 10 46 0 39 -5 50 -36 80 -31 29 -44 34 -83 34 -49 0 -116 -21 -193 -61
-10 -5 -29 -9 -43 -9 -14 0 -25 -4 -25 -10 0 -5 -11 -10 -25 -10 -14 0 -25 -4
-25 -10 0 -5 -8 -10 -19 -10 -10 0 -24 -7 -31 -15 -7 -8 -17 -15 -22 -15 -5 0
-70 -61 -144 -135 -74 -74 -141 -135 -149 -135 -8 0 -15 -4 -15 -10 0 -5 -5
-10 -11 -10 -6 0 -17 -6 -24 -12 -26 -24 -40 -33 -70 -48 -16 -8 -37 -23 -46
-32 -9 -10 -20 -18 -25 -18 -5 0 -21 -11 -36 -25 -15 -14 -34 -25 -43 -25 -8
0 -15 -4 -15 -10 0 -5 -5 -10 -11 -10 -6 0 -17 -6 -24 -12 -33 -30 -45 -38
-55 -38 -5 0 -10 -4 -10 -10 0 -5 -8 -10 -18 -10 -10 0 -24 -9 -32 -20 -21
-29 -27 -25 -33 23 -12 101 -29 192 -38 195 -5 2 -9 15 -9 28 0 13 -4 24 -8
24 -20 0 -57 94 -55 138 2 48 20 102 34 102 5 0 9 4 9 9 0 5 20 30 45 54 25
25 45 53 45 61 0 9 5 16 10 16 6 0 10 5 10 11 0 6 7 17 15 26 12 11 15 34 13
89 -2 65 1 76 20 92 23 20 32 82 12 82 -5 0 -10 7 -10 16 0 9 -16 31 -35 50
-28 26 -35 40 -35 69 0 32 -17 65 -35 65 -3 0 -17 10 -30 23 -36 33 -53 47
-60 47 -10 0 -35 28 -35 38 0 6 -6 13 -12 16 -10 5 -10 7 0 12 6 3 12 16 12
29 0 13 4 26 9 30 10 6 23 75 26 130 2 68 -26 103 -60 73 -33 -30 -45 -38 -55
-38 -5 0 -10 -9 -10 -21 0 -11 -4 -17 -10 -14 -5 3 -10 2 -10 -3 0 -5 -24 -33
-52 -63 l-53 -55 -50 10 c-72 13 -141 11 -215 -7 -36 -9 -77 -19 -92 -23 -27
-6 -58 12 -58 35 0 6 -5 11 -10 11 -11 0 -60 45 -60 55 0 9 -48 55 -57 55 -4
0 -21 16 -38 35 -16 19 -35 35 -42 35 -7 0 -13 5 -13 10 0 6 -11 10 -25 10
-14 0 -25 5 -25 10 0 18 -26 10 -48 -15z"/>
</g>
</svg>
