<?xml version="1.0" standalone="no"?>
<!DOCTYPE svg PUBLIC "-//W3C//DTD SVG 20010904//EN"
 "http://www.w3.org/TR/2001/REC-SVG-20010904/DTD/svg10.dtd">
<svg version="1.0" xmlns="http://www.w3.org/2000/svg"
 width="297.000000pt" height="279.000000pt" viewBox="0 0 297.000000 279.000000"
 preserveAspectRatio="xMidYMid meet">

<g transform="translate(0.000000,279.000000) scale(0.100000,-0.100000)"
fill="#000000" stroke="none">
<path d="M2422 2774 c-53 -37 1 -119 95 -143 81 -21 93 -29 113 -75 56 -126
61 -256 20 -521 -34 -222 -72 -299 -158 -326 -39 -12 -1244 -34 -1397 -26 -76
5 -135 21 -135 38 0 4 -15 12 -33 18 -48 16 -102 65 -149 134 -22 34 -80 100
-127 147 -79 77 -90 93 -121 170 -18 47 -35 87 -38 90 -5 7 -43 -39 -64 -79
-20 -37 -28 -34 -68 20 -31 43 -40 36 -29 -24 6 -36 4 -40 -25 -58 -17 -10
-34 -19 -38 -19 -23 0 -113 -68 -134 -101 -13 -21 -42 -48 -64 -59 -75 -38
-87 -96 -37 -185 31 -55 75 -82 148 -90 76 -9 119 -44 148 -118 11 -29 38 -92
61 -142 23 -49 55 -140 71 -201 33 -131 63 -212 112 -310 59 -118 61 -137 37
-330 -24 -196 -47 -336 -61 -381 -11 -35 -35 -54 -91 -72 -53 -17 -88 -48 -88
-77 0 -36 56 -57 134 -52 63 5 70 10 119 88 13 19 32 36 44 38 17 3 28 20 49
75 92 242 227 538 239 525 1 -1 19 -51 38 -109 56 -169 138 -323 209 -396 57
-58 60 -64 55 -98 -8 -46 8 -82 42 -92 89 -29 148 68 103 168 -10 24 -43 73
-72 109 -89 110 -91 117 -83 340 l6 192 166 -8 c180 -10 287 -8 367 4 l52 9 6
-56 c7 -59 44 -204 77 -298 34 -100 23 -146 -53 -229 -61 -66 -100 -87 -148
-79 -36 6 -43 3 -71 -24 -19 -20 -29 -39 -27 -52 5 -33 50 -61 105 -66 97 -9
201 48 348 192 130 126 140 145 123 226 -10 47 -10 64 0 77 27 38 71 140 77
180 l7 43 78 -84 c83 -89 183 -164 290 -217 36 -18 78 -42 94 -53 27 -19 28
-22 24 -86 -6 -80 -33 -143 -82 -193 -40 -42 -43 -53 -19 -87 15 -23 20 -23
95 -18 90 7 112 17 132 56 20 38 52 169 67 269 15 109 7 184 -24 225 -53 69
-140 274 -152 358 -4 26 -2 96 5 156 15 135 5 194 -52 302 -37 70 -40 81 -35
136 2 35 29 134 65 240 72 217 86 290 85 460 0 231 -31 358 -108 443 -53 59
-111 88 -212 108 -91 17 -84 17 -111 -2z"/>
</g>
</svg>
